<svg width="443" height="443" viewBox="0 0 443 443" fill="none" xmlns="http://www.w3.org/2000/svg">
<path d="M430.419 297.846C437.456 297.846 443 292.302 443 285.264V157.745C443 150.707 437.456 145.163 430.419 145.163C423.381 145.163 417.837 150.707 417.837 157.745V285.264C417.837 292.302 423.381 297.846 430.419 297.846ZM12.5815 297.846C19.6191 297.846 25.163 292.302 25.163 285.264V157.745C25.163 150.707 19.6191 145.163 12.5815 145.163C5.54393 145.163 0 150.707 0 157.745V285.264C0 292.302 5.54393 297.846 12.5815 297.846ZM157.736 443H285.255C292.504 443 297.837 437.456 297.837 430.418C297.837 423.381 292.504 417.837 285.255 417.837H157.736C150.698 417.837 144.154 423.381 144.154 430.418C144.163 437.456 150.698 443 157.736 443ZM145.163 12.5815C145.163 19.6191 150.707 25.163 157.745 25.163H285.053C292.302 25.163 297.846 19.6191 297.846 12.5815C297.846 5.54394 292.302 0 285.053 0H157.745C150.698 0 145.163 5.54394 145.163 12.5815Z" fill="#CDCDCD"/>
</svg>
